<svg width="56" height="48" viewBox="0 0 56 48" fill="none" xmlns="http://www.w3.org/2000/svg">
<rect x="2" width="36" height="46" fill="#2094FF"/>
<rect x="38" y="27" width="18" height="19" fill="#2094FF"/>
<path d="M38 14L47.5 21L56 27H38V14Z" fill="#2094FF"/>
<rect y="2" width="36" height="46" fill="#007C75"/>
<rect x="36" y="29" width="18" height="19" fill="#006963"/>
<path d="M36 16L45.5 23L54 29H36V16Z" fill="#006963"/>
<path d="M0 17L43 44V48H36H0V17Z" fill="#00C19E"/>
<path d="M29 7L31 8V12H29V7Z" fill="#DCDCDC"/>
<path d="M29 25L31 26V30H29V25Z" fill="#DCDCDC"/>
<path d="M10 25L12 26V30H10V25Z" fill="#DCDCDC"/>
<path d="M5 7L7 8V12H5V7Z" fill="#DCDCDC"/>
<path d="M5 16L7 17V21H5V16Z" fill="#DCDCDC"/>
<path d="M24 16L26 17V21H24V16Z" fill="#DCDCDC"/>
<path d="M24 7L26 8V12H24V7Z" fill="#DCDCDC"/>
<path d="M24 25L26 26V30H24V25Z" fill="#DCDCDC"/>
<path d="M5 25L7 26V30H5V25Z" fill="#DCDCDC"/>
<path d="M10 7L12 8V12H10V7Z" fill="#DCDCDC"/>
<path d="M10 16L12 17V21H10V16Z" fill="#DCDCDC"/>
<path d="M29 16L31 17V21H29V16Z" fill="#DCDCDC"/>
</svg>
